<?xml version="1.0" encoding="utf-8"?>
<!-- Generator: Adobe Illustrator 28.0.0, SVG Export Plug-In . SVG Version: 6.00 Build 0)  -->
<svg version="1.1" id="Layer_1" xmlns="http://www.w3.org/2000/svg" xmlns:xlink="http://www.w3.org/1999/xlink" x="0px" y="0px"
	 width="4332.3px" height="1318.7px" viewBox="0 0 4332.3 1318.7" style="enable-background:new 0 0 4332.3 1318.7;"
	 xml:space="preserve">
<style type="text/css">
	.st0{fill:#FFFFFF;}
</style>
<g>
	<path class="st0" d="M977.9,32.6h290.4v1247.6H977.9v-130.4c-127.4,148.2-284.5,168.9-373.4,168.9C219.3,1318.7,0,998.6,0,654.9
		C0,248.9,278.5,0,607.5,0c91.9,0,251.9,23.7,370.4,177.8V32.6z M296.3,660.8c0,216.3,136.3,397.1,346.7,397.1
		c183.7,0,352.6-133.3,352.6-394.1c0-272.6-168.9-403-352.6-403C432.6,260.8,296.3,438.6,296.3,660.8z M1614.1,32.6h290.4v112.6
		c32.6-38.5,80-80,121.5-103.7C2082.3,8.9,2138.6,0,2203.8,0c71.1,0,148.2,11.9,228.2,59.3L2313.4,323
		c-65.2-41.5-118.5-44.4-148.2-44.4c-62.2,0-124.5,8.9-180.8,68.2c-80,85.9-80,204.5-80,287.4v646H1614V32.6H1614.1z M2619.5,32.6
		h290.4v115.6C3007.7,29.6,3123.3,0,3218.1,0c130.4,0,251.9,62.2,323,183.7C3644.8,35.6,3801.9,0,3911.5,0
		c151.1,0,284.5,71.1,355.6,195.6c23.7,41.5,65.2,133.3,65.2,314.1v770.5h-290.4V592.7c0-139.3-14.8-195.6-26.7-222.2
		c-17.8-47.4-62.2-109.6-165.9-109.6c-71.1,0-133.3,38.5-171.9,91.9c-50.4,71.1-56.3,177.8-56.3,284.5v643h-290.4V592.7
		c0-139.3-14.8-195.6-26.7-222.2c-17.8-47.4-62.2-109.6-166-109.6c-71.1,0-133.3,38.5-171.9,91.9c-50.4,71.1-56.3,177.8-56.3,284.5
		v643h-290.4L2619.5,32.6L2619.5,32.6z"/>
</g>
</svg>
