<svg width="1024" height="324" viewBox="0 0 1024 324" fill="none" xmlns="http://www.w3.org/2000/svg">
<path fill-rule="evenodd" clip-rule="evenodd" d="M526.708 99.5005L530.329 0H614.51L615.143 23.4492L613.197 60.5242H573.303L572.986 73.1994H616.727L617.361 99.5005L614.193 132.773H530.829L526.708 99.5005Z" fill="#030303"/>
<path fill-rule="evenodd" clip-rule="evenodd" d="M566.964 22.4988H609.12L608.803 6.021L535.901 6.33788L533.048 98.55H611.342L610.709 79.5371H566.013L566.964 22.4988Z" fill="#C4C4C4"/>
<path fill-rule="evenodd" clip-rule="evenodd" d="M537.803 98.5498C535.267 98.5498 533.365 100.768 533.682 103.303L535.584 122.316C535.901 124.851 538.119 127.069 540.972 127.069H603.418C605.952 127.069 608.487 124.851 608.804 122.316L611.026 103.303C611.342 100.768 609.437 98.5498 606.903 98.5498H537.803Z" fill="#29282A"/>
<path opacity="0.44" fill-rule="evenodd" clip-rule="evenodd" d="M533.999 116.295C533.999 116.929 536.218 117.246 538.754 117.246H539.07C541.606 117.246 543.825 116.929 543.825 116.295C543.825 115.661 541.606 115.345 539.07 115.345H538.754C536.218 115.028 533.999 115.661 533.999 116.295ZM541.606 35.8076C542.557 36.4413 545.727 37.392 548.263 37.7089L564.112 40.2439C566.647 41.1946 568.549 41.8283 568.866 41.1946C569.183 40.5608 567.281 39.6102 564.745 38.6595L544.459 35.1738C541.923 35.1738 540.655 35.1738 541.606 35.8076ZM541.289 54.5035C542.24 53.8697 540.972 53.5528 538.436 53.5528C535.901 53.5528 533.682 54.1866 533.682 54.8203C533.682 55.4541 534.95 55.771 536.535 55.771C538.119 55.771 540.338 55.1372 541.289 54.5035Z" fill="#030303"/>
<path fill-rule="evenodd" clip-rule="evenodd" d="M533.048 117.563C533.048 116.295 534.95 115.344 537.168 115.661C539.704 115.978 539.704 116.929 537.485 118.196C535.267 119.464 533.365 118.83 533.048 117.563ZM568.232 42.1451C568.232 43.0957 566.33 42.7788 564.428 41.1944L563.794 40.8776C561.576 39.2932 561.892 38.6594 564.111 39.2932C566.33 39.61 568.232 40.8776 568.232 42.1451Z" fill="#030303"/>
<path opacity="0.5" fill-rule="evenodd" clip-rule="evenodd" d="M562.209 100.768C562.527 99.5007 562.527 97.5994 562.209 96.3319C561.893 95.0644 559.357 94.1138 556.504 94.1138H554.919C552.383 94.1138 549.531 95.3813 548.58 96.6488C547.629 97.9163 549.213 99.8176 551.749 100.451L556.821 101.719C559.357 102.353 561.893 102.036 562.209 100.768Z" fill="#030303"/>
<path fill-rule="evenodd" clip-rule="evenodd" d="M558.406 97.2826C556.821 95.6982 556.821 94.1138 558.723 94.1138C560.308 94.1138 562.526 95.0644 563.16 96.0151C564.111 96.9657 563.478 99.8176 562.209 101.719C560.941 103.937 559.991 104.571 560.625 102.986C560.625 101.719 559.674 99.1839 558.406 97.2826Z" fill="#030303"/>
<path fill-rule="evenodd" clip-rule="evenodd" d="M550.798 96.3316C550.481 95.0641 549.213 95.0641 548.579 96.9654C547.628 98.5498 548.896 100.768 551.115 102.035C553.334 103.303 554.285 102.986 553.334 101.402C552.383 100.134 551.115 97.916 550.798 96.3316Z" fill="#5A5558"/>
<path fill-rule="evenodd" clip-rule="evenodd" d="M538.437 96.9654C535.901 96.9654 533.999 97.5991 533.999 97.916C534.316 98.2329 536.535 98.8666 539.07 98.8666H541.289C543.825 98.8666 546.361 98.5498 546.361 97.916C546.678 97.2822 544.459 96.9654 541.923 96.9654H538.437ZM573.621 20.2803C571.085 20.2803 569.5 20.5972 569.817 21.2309C570.451 21.5478 572.987 22.1816 575.523 22.1816H599.929C602.463 22.1816 605.319 21.8647 605.636 21.2309C605.953 20.5972 604.685 20.2803 601.83 20.2803H573.621ZM555.553 92.2121C553.018 92.2121 550.799 92.8459 551.116 93.1628C551.433 93.4797 553.334 94.1134 555.87 94.1134C558.406 94.1134 560.308 93.7966 560.625 93.1628C560.625 92.529 558.406 92.2121 555.553 92.2121ZM548.897 33.5893C546.361 33.2724 544.459 33.5893 544.459 33.9061C544.776 34.5399 546.995 35.1737 549.531 35.4905L553.018 35.8075C555.553 36.1243 558.089 36.1243 558.406 35.4905C558.723 34.8568 556.821 34.223 554.286 33.9061L548.897 33.5893Z" fill="#E0DBD6"/>
<path d="M567.186 98.233C566.155 97.6296 569.248 97.3276 573.373 97.3276H603.277C607.4 97.3276 609.975 97.6296 609.464 98.233C608.948 98.8364 604.821 99.1384 600.698 99.1384H575.951C571.826 99.1384 567.702 98.5349 567.186 98.233Z" fill="#E0DBD6"/>
<path d="M700.402 0.452637L692.12 16.9757L699.452 97.4181L699.135 129.106L699.452 132.592H781.547L783.452 129.423L799.934 97.4181L784.085 3.93832L783.452 0.452637H750.275L737.829 15.6176L735.792 0.452637H700.402Z" fill="#030303"/>
<path d="M715.617 98.6857L794.227 99.0026L778.378 6.47363H754.406L761.135 55.59L764.136 79.4466H740.996L737.806 55.2731L731.492 6.47363H705.475L715.617 98.6857Z" fill="#C4C4C4"/>
<path d="M714.034 103.122C714.984 100.587 717.835 98.6855 720.374 98.6855L789.155 98.3687C791.694 98.3687 792.644 100.27 791.377 102.488L779.963 122.452C778.696 124.67 775.528 126.571 772.989 126.571L710.544 126.888C708.01 126.888 706.426 124.987 707.376 122.452L714.034 103.122Z" fill="#29282A"/>
<path opacity="0.44" fill-rule="evenodd" clip-rule="evenodd" d="M759.552 58.8491C757.018 58.8491 754.796 59.4829 754.796 59.7998C754.796 60.4335 757.018 60.7504 759.552 60.7504L787.761 63.9192C790.299 64.2361 792.517 63.9192 792.834 63.2854C793.151 62.6517 790.933 62.0179 788.399 62.0179L759.552 58.8491Z" fill="#030303"/>
<path fill-rule="evenodd" clip-rule="evenodd" d="M742.242 114.847C742.558 113.896 740.658 113.262 738.123 113.262L730.832 113.896C728.298 114.213 728.298 114.53 730.832 114.847L736.856 115.797C739.39 116.431 741.925 115.797 742.242 114.847ZM733.684 96.7844C733.367 95.8338 732.733 95.5169 732.416 96.4675C732.1 97.4182 732.1 99.6364 732.733 101.538C733.05 103.439 733.684 103.439 734 101.855C734.317 100.27 734.317 98.052 733.684 96.7844Z" fill="#030303"/>
<path fill-rule="evenodd" clip-rule="evenodd" d="M789.865 65.3596L784.158 63.1414C781.624 62.1908 781.94 61.5571 784.475 61.8739L790.498 62.5077" fill="#030303"/>
<path fill-rule="evenodd" clip-rule="evenodd" d="M736.222 100.587C735.905 99.6362 735.271 100.587 734.638 102.171C734 104.072 734 104.706 734.955 103.756C735.905 102.805 736.539 101.221 736.222 100.587ZM727.981 116.114C725.442 115.797 725.759 115.163 728.297 114.846H729.248C731.782 114.53 734.955 114.846 736.222 115.797C737.489 116.431 737.172 117.065 735.271 117.065C733.683 117.065 730.515 116.431 727.981 116.114Z" fill="#5A5558"/>
<path fill-rule="evenodd" clip-rule="evenodd" d="M721.324 97.4182C718.79 97.4182 716.885 98.0519 716.885 98.3688C716.885 98.6857 719.424 99.3194 721.958 99.3194H724.809C727.348 99.3194 729.882 99.0026 729.882 98.3688C730.199 97.735 728.298 97.4182 725.443 97.4182H721.324ZM740.341 97.4182C737.807 97.4182 735.906 98.0519 735.906 98.3688C736.223 98.6857 738.44 99.3194 740.975 99.3194H786.159C788.698 99.3194 790.915 99.0026 791.232 98.3688C791.549 97.735 789.331 97.4182 786.792 97.4182H740.341ZM768.599 58.3061C766.06 57.9892 764.16 58.3061 764.16 58.6229C764.476 59.2567 766.698 59.8905 769.233 60.2073L772.718 60.5242C775.256 60.8411 777.791 60.8411 778.108 60.2073C778.424 59.5736 776.524 58.9398 773.985 58.6229L768.599 58.3061Z" fill="#E0DBD6"/>
<path d="M757.062 60.705C757.062 60.3882 758.963 59.7544 761.502 59.7544H764.037C766.571 59.7544 768.788 60.0713 768.472 60.705C768.155 61.3388 765.937 61.6557 763.403 61.6557H762.136C759.597 61.6557 757.379 61.0219 757.062 60.705Z" fill="#030303"/>
<path d="M615.41 132.773H698.143L709.697 99.8174L706.837 72.2035H664.287L659.309 0H615.727L612.242 38.0257L615.41 132.773Z" fill="#030303"/>
<path d="M624.606 98.5496H657.571H703.212L701.171 79.6726H656.354L652.068 6.3374H621.117L624.606 98.5496Z" fill="#C4C4C4"/>
<path d="M624.29 103.303C624.607 100.768 627.141 98.5498 629.675 98.5498L698.777 99.1836C701.312 99.1836 702.896 101.085 701.945 103.62L695.288 122.316C694.338 124.851 691.486 126.752 688.952 126.752H626.191C623.652 126.752 621.751 124.534 622.068 121.999L624.29 103.303Z" fill="#29282A"/>
<path opacity="0.44" fill-rule="evenodd" clip-rule="evenodd" d="M635.699 36.7583C635.699 38.0259 638.234 38.9765 640.773 38.9765H641.723C644.257 38.9765 646.792 38.9765 647.108 39.2934C647.425 39.2934 648.697 40.244 649.331 39.9271C649.964 39.6103 649.331 38.9765 648.697 38.0259C647.742 37.3921 644.891 36.7583 642.357 36.7583C639.818 36.7583 637.6 34.5402 637.283 32.0051L634.749 9.18974C634.432 6.65469 633.799 4.43652 633.165 4.43652C632.531 4.43652 632.531 6.65469 632.848 9.18974L634.749 27.2519C635.066 29.787 633.165 32.0051 630.626 32.0051H624.607C622.068 32.0051 619.851 32.322 619.851 32.9558C619.851 33.5895 622.068 33.9064 624.607 33.9064H630.626C633.482 34.5402 635.699 35.4908 635.699 36.7583ZM632.848 83.6565C633.165 86.1916 632.215 89.9941 630.943 92.2123C629.676 94.4305 628.725 98.233 629.359 98.5499C629.992 98.8668 630.943 96.9655 631.576 94.4305C632.215 92.2123 634.432 89.9941 634.749 89.9941C635.066 89.9941 635.066 87.776 635.066 85.2409L634.432 75.4176C634.115 72.8826 636.333 70.6644 638.867 70.6644H654.082C656.621 70.6644 658.839 70.3475 658.839 69.7138C658.839 69.08 656.621 68.7631 654.082 68.7631H636.65C634.115 68.7631 631.893 70.9813 632.215 73.5163L632.848 83.6565ZM620.801 117.88C620.801 118.513 622.702 119.147 625.557 119.147L648.697 120.732C651.231 121.048 653.449 120.732 653.449 120.098C653.449 119.464 651.548 118.83 648.697 118.83L625.557 117.246C623.019 116.929 621.118 117.246 620.801 117.88Z" fill="#030303"/>
<path fill-rule="evenodd" clip-rule="evenodd" d="M699.728 109.957C700.045 109.007 698.144 108.373 695.605 108.373H693.388C690.853 108.373 690.853 109.007 693.071 109.64L694.655 109.957C697.194 111.225 699.411 110.908 699.728 109.957ZM682.929 96.0146C682.295 94.7471 681.979 95.3809 681.979 97.9159C681.979 100.451 682.612 101.402 683.246 100.451C683.879 99.1834 683.562 97.2821 682.929 96.0146Z" fill="#030303"/>
<path fill-rule="evenodd" clip-rule="evenodd" d="M631.26 120.415C629.042 119.781 629.676 119.464 632.215 119.464C634.749 119.464 638.551 120.098 640.773 120.731C642.99 121.365 642.357 121.999 639.818 121.682C636.967 121.682 633.165 121.048 631.26 120.415ZM684.83 102.036C684.513 101.085 683.879 102.036 683.246 103.62C682.612 105.204 682.612 106.155 683.562 105.204C684.513 104.254 685.146 102.669 684.83 102.036Z" fill="#5A5558"/>
<path fill-rule="evenodd" clip-rule="evenodd" d="M620.167 34.2234C620.167 32.9559 622.068 32.0053 624.607 32.3222H625.24C627.775 32.3222 628.091 33.2728 625.557 34.2234L624.607 34.5403C622.385 35.8078 620.167 35.491 620.167 34.2234Z" fill="#030303"/>
<path fill-rule="evenodd" clip-rule="evenodd" d="M636.016 96.9653C633.482 96.9653 631.577 97.2822 631.898 97.916C632.215 98.2329 634.749 98.8666 637.283 98.8666H650.281C652.815 98.8666 655.35 98.5497 655.671 97.916C655.988 97.2822 654.399 96.9653 651.548 96.9653H636.016ZM675.638 96.9653C673.104 96.9653 670.882 97.5991 671.198 97.916C671.515 98.2329 673.737 98.8666 676.272 98.8666C678.806 98.8666 681.028 98.5497 681.345 97.916C681.662 97.2822 679.44 96.9653 676.905 96.9653H675.638ZM689.903 96.9653C687.364 96.9653 685.463 97.2822 685.78 97.916C686.097 98.5497 688.319 98.8666 690.853 98.8666H695.926C698.461 98.8666 700.995 98.5497 700.995 97.916C701.312 97.2822 699.411 96.9653 696.877 96.9653H689.903ZM630.626 30.4204C628.092 30.4204 626.508 31.0541 626.508 31.371C626.508 31.6879 628.409 32.3217 630.626 32.3217C632.848 32.3217 634.749 32.0048 634.749 31.371C634.749 30.7372 633.165 30.4204 630.626 30.4204ZM639.501 66.5448C636.967 66.5448 635.066 66.8617 635.383 67.4954C635.699 67.8123 637.917 68.4461 640.456 68.4461H645.525C648.063 68.4461 650.598 68.1292 650.598 67.4954C650.915 66.8617 649.014 66.5448 646.475 66.5448H639.501Z" fill="#E0DBD6"/>
<path d="M787.158 0.452637L782.633 7.24294L798.472 98.4932L782.406 129.423L784.398 132.592H865.452L895.773 100.723L869.031 3.62144L868.081 0.452637H787.158Z" fill="#030303"/>
<path fill-rule="evenodd" clip-rule="evenodd" d="M812.48 98.6855C809.945 98.6855 806.456 100.27 804.555 102.171L789.155 123.085C787.571 124.987 788.204 126.571 790.739 126.571H855.36C857.894 126.571 861.7 124.987 863.601 123.402L885.474 102.171C887.374 100.27 886.741 99.0024 884.206 99.0024L812.48 98.6855Z" fill="#29282A"/>
<path fill-rule="evenodd" clip-rule="evenodd" d="M807.221 98.6858H886.949L876.165 56.5859H861.379L858.664 45.0424H873.205L863.325 6.47363H790.422L807.221 98.6858ZM859.687 78.5412H832.189L829.926 66.545H857.08L859.687 78.5412ZM823.59 35.7623H850.477L848.029 24.4452H821.554L823.59 35.7623Z" fill="#C4C4C4"/>
<path d="M823.138 23.9923C823.138 23.6905 825.523 23.0869 828.704 23.0869H834.271C837.851 23.0869 840.236 23.3887 839.837 23.9923C839.837 24.5959 836.66 24.8977 833.479 24.8977H829.501C826.319 24.8977 823.536 24.2941 823.138 23.9923Z" fill="#E0DBD6"/>
<path d="M805.939 23.5396C805.939 23.3887 807.487 23.0869 809.551 23.0869H813.162C815.484 23.0869 817.032 23.2378 816.774 23.5396C816.774 23.8414 814.71 23.9923 812.646 23.9923H810.067C808.003 23.9923 806.197 23.6905 805.939 23.5396Z" fill="#E0DBD6"/>
<path d="M843.512 24.4454C843.426 24.1436 843.956 23.9927 844.666 23.9927H847.771C848.481 23.9927 849.011 24.1436 848.925 24.4454C848.834 24.7472 848.124 24.8981 847.418 24.8981H845.019C844.313 24.8981 843.603 24.7472 843.512 24.4454Z" fill="#E0DBD6"/>
<path d="M830.423 65.866C829.998 65.4134 832.568 65.187 835.999 65.187H851.006C854.436 65.187 857.007 65.4134 856.581 65.866C856.151 66.3187 852.721 66.5451 849.29 66.5451H837.714C834.283 66.5451 830.853 66.3187 830.423 65.866Z" fill="#E0DBD6"/>
<path d="M858.913 44.816C858.691 44.5142 860.022 44.3633 861.796 44.3633H869.562C871.336 44.3633 872.666 44.5142 872.444 44.816C872.223 45.1178 870.449 45.2687 868.675 45.2687H862.683C860.909 45.2687 859.135 45.1178 858.913 44.816Z" fill="#E0DBD6"/>
<path opacity="0.44" d="M818.069 23.6528C820.599 24.0026 822.658 24.883 822.803 25.5775C822.636 26.19 820.721 26.0042 818.273 25.3481L803.764 24.4137C801.867 22.9209 800.36 21.2038 800.831 20.6733C801.297 20.1428 803.053 20.9411 804.868 22.7402C806.683 24.5394 818.069 23.6528 818.069 23.6528Z" fill="#030303"/>
<path opacity="0.44" fill-rule="evenodd" clip-rule="evenodd" d="M836.068 13.1279C833.846 13.1279 831.628 11.2266 830.995 9.00848C830.361 6.79032 829.411 5.20592 828.777 5.5228C828.143 5.83968 828.46 7.74096 829.094 10.276V10.5929C829.727 13.1279 832.262 15.0292 834.479 15.0292C836.701 15.0292 838.919 16.9305 839.869 19.4655L840.503 21.6837C841.453 24.2187 842.404 26.12 843.037 25.8032C843.675 25.4863 843.354 23.585 842.404 21.0499L841.137 17.5643C840.82 15.3461 838.285 13.1279 836.068 13.1279Z" fill="#030303"/>
<path fill-rule="evenodd" clip-rule="evenodd" d="M795.839 112.538C796.789 111.587 799.323 110.954 802.179 111.27L812.955 113.172C815.489 113.489 815.489 113.805 812.955 114.122L799.323 114.439C796.472 114.439 795.205 113.805 795.839 112.538Z" fill="#030303"/>
<path fill-rule="evenodd" clip-rule="evenodd" d="M796.662 113.315C797.613 112.681 797.612 110.146 796.979 107.611L796.345 105.076C795.712 102.541 795.078 102.541 795.078 105.393V109.829C795.078 112.364 795.712 113.948 796.662 113.315Z" fill="#29282A"/>
<path fill-rule="evenodd" clip-rule="evenodd" d="M840.819 26.1198L841.136 21.0498C841.136 18.5147 841.77 18.5147 842.403 21.0498L843.992 26.7536" fill="#030303"/>
<path fill-rule="evenodd" clip-rule="evenodd" d="M802.174 114.881C799.952 115.197 799.952 114.564 802.174 113.93C804.392 113.296 808.193 112.979 810.732 113.296L812.95 113.613C815.484 113.93 815.484 114.247 812.95 114.247H810.732C808.193 114.564 804.075 114.881 802.174 114.881Z" fill="#5A5558"/>
<path fill-rule="evenodd" clip-rule="evenodd" d="M822.716 24.8162C821.906 24.2273 818.996 23.9716 816.638 24.4894C814.28 25.0072 814.651 25.5228 817.118 25.7051L819.842 25.7029C822.494 26.143 823.969 25.4785 822.716 24.8162Z" fill="#29282A"/>
<path fill-rule="evenodd" clip-rule="evenodd" d="M812.294 97.418C809.755 97.418 807.854 97.7349 808.488 98.3686C809.122 98.6855 811.66 99.3193 814.195 99.3193H881.016C883.555 99.3193 886.089 99.0024 886.723 98.3686C887.356 97.7349 885.455 97.418 882.921 97.418H812.294Z" fill="#E0DBD6"/>
<path opacity="0.5" fill-rule="evenodd" clip-rule="evenodd" d="M858.297 45.1779C857.664 44.5441 857.03 42.0091 856.713 39.474C856.396 36.939 857.03 36.939 857.664 39.474L858.297 41.6922C859.248 44.2272 859.248 45.8116 858.297 45.1779Z" fill="#030303"/>
<path opacity="0.44" d="M796.889 77.4545C796.889 76.8208 799.106 76.5039 801.645 76.5039H828.269C830.804 76.5039 833.026 76.8208 833.026 77.4545C833.026 78.0883 830.804 78.4052 828.269 78.4052H801.645C799.106 78.4052 796.889 78.0883 796.889 77.4545Z" fill="#030303"/>
<path d="M804.351 75.2067C801.817 74.8898 800.233 75.8405 800.55 77.4249C800.867 78.6924 803.401 79.643 805.94 79.3261L812.909 78.0586C815.448 77.4249 815.448 76.7911 812.909 76.4742L804.351 75.2067Z" fill="#030303"/>
<path d="M799.979 79.3583C800.934 77.1401 802.518 75.8726 802.835 76.8233C803.152 77.7739 802.518 80.3089 800.934 82.2102L796.495 88.2309C794.911 90.4491 794.594 90.1322 795.861 87.9141L799.979 79.3583Z" fill="#29282A"/>
<path d="M814.122 75.644C813.806 75.0102 815.706 74.6934 818.241 74.6934H825.215C827.749 74.6934 829.654 75.0102 829.338 75.644C829.338 76.2778 826.799 76.5947 824.264 76.5947H819.191C816.657 76.5947 814.439 75.9609 814.122 75.644Z" fill="#E0DBD6"/>
<path d="M361.502 0L361.185 3.16881L349.304 100.768L361.502 129.287L362.453 132.456H445.501L446.451 107.423L440.043 75.146L402.254 74.6933L403.838 60.2073H446.451H448.036L448.987 37.7088L444.867 0H361.502Z" fill="#030303"/>
<path d="M435.356 98.2328L436.307 79.22L391.614 78.9031L396.051 22.1814H438.526L439.477 6.02051H366.89L357.063 98.2328H435.356Z" fill="#C4C4C4"/>
<path fill-rule="evenodd" clip-rule="evenodd" d="M361.819 98.2329C359.283 98.2329 357.698 100.134 358.649 102.669L365.305 121.365C366.257 123.9 369.109 125.802 371.645 125.802H434.406C436.942 125.802 438.843 123.583 438.526 121.048L435.991 102.669C435.673 100.134 433.138 97.916 430.602 97.916L361.819 98.2329Z" fill="#29282A"/>
<path opacity="0.44" fill-rule="evenodd" clip-rule="evenodd" d="M373.864 82.0722C373.864 79.5372 371.962 77.319 369.427 77.319H361.819C359.283 77.319 357.064 77.6359 357.064 78.2696C357.064 78.9034 359.283 79.2203 361.819 79.2203H367.208C369.743 79.2203 371.962 81.4384 371.645 83.9735L371.328 93.163C371.328 95.6981 371.645 99.8175 372.279 102.353L373.547 107.74C374.181 110.275 375.449 113.443 376.083 114.711C376.717 115.978 377.034 115.028 376.4 112.493L374.181 102.036C373.547 99.5006 373.23 95.3812 373.23 92.5293L373.864 82.0722ZM361.819 32.9558C361.819 33.5896 364.038 33.9065 366.574 33.9065H373.864C376.4 33.9065 379.57 33.2727 380.838 32.6389C382.106 32.0052 380.838 31.3714 378.302 31.6883L366.574 32.0052C364.038 31.6883 361.819 32.3221 361.819 32.9558ZM417.29 43.7297C417.29 41.1947 416.656 38.9765 416.022 38.9765C415.388 38.9765 415.071 41.1947 415.071 43.7297V52.6023C415.071 55.1374 415.705 56.088 416.339 54.8205C416.973 53.553 417.607 50.0673 417.29 47.5322V43.7297ZM427.116 79.5372C427.116 82.0722 424.897 83.9735 422.361 83.9735H416.656C414.12 83.9735 411.901 86.1917 411.901 88.7267V94.4305C411.901 96.9656 412.218 99.1838 412.852 99.1838C413.486 99.1838 413.803 96.9656 413.803 94.4305V90.9449C413.803 88.4098 416.022 86.1916 418.557 86.1916H424.263C426.799 86.1916 429.018 83.9735 429.018 81.4384V80.1709C429.018 77.6359 428.701 75.4177 428.067 75.4177C427.75 75.4177 427.116 77.319 427.116 79.5372Z" fill="#030303"/>
<path fill-rule="evenodd" clip-rule="evenodd" d="M438.209 112.176C437.893 110.908 435.674 109.957 433.138 110.274L426.164 111.225C423.629 111.542 423.629 112.176 426.164 112.492L433.771 113.76C436.624 114.394 438.526 113.76 438.209 112.176ZM373.547 94.1133C373.23 92.212 372.596 91.8951 372.279 93.7964C371.962 95.6977 372.279 99.1834 372.913 101.718L373.23 102.669C373.863 105.204 374.497 105.204 374.181 102.669C374.181 99.8172 373.863 96.0146 373.547 94.1133ZM412.535 95.6977C412.217 94.7471 411.9 96.3315 411.9 98.8665V99.1834C411.9 101.718 412.217 102.352 412.851 100.451C413.169 98.5496 413.169 96.3315 412.535 95.6977Z" fill="#030303"/>
<path fill-rule="evenodd" clip-rule="evenodd" d="M370.694 101.719C369.743 100.451 369.426 101.402 370.06 103.303C370.377 105.521 371.645 108.69 372.596 110.591C373.547 112.493 373.864 111.859 373.23 109.324L372.913 108.373C372.913 105.838 371.645 102.669 370.694 101.719Z" fill="#5A5558"/>
<path fill-rule="evenodd" clip-rule="evenodd" d="M416.656 38.3429C415.705 38.026 415.388 39.6104 415.705 42.1455V43.0961C416.022 45.6311 416.656 45.948 417.29 43.413C417.607 41.1948 417.29 38.6598 416.656 38.3429Z" fill="#030303"/>
<path fill-rule="evenodd" clip-rule="evenodd" d="M362.769 96.6485C360.234 96.6485 358.332 97.2823 358.332 97.5992C358.332 97.916 360.868 98.5498 363.403 98.5498H365.622C368.158 98.5498 370.694 98.2329 370.694 97.5992C371.011 96.9654 368.792 96.6485 366.256 96.6485H362.769ZM364.988 75.7344C362.453 75.7344 360.551 76.3681 360.551 76.685C360.551 77.0019 363.087 77.6357 365.622 77.6357H366.89C369.426 77.6357 371.645 77.3188 371.962 76.685C372.279 76.0513 370.06 75.7344 367.524 75.7344H364.988ZM402.391 20.2803C399.856 20.2803 398.271 20.5972 398.905 21.2309C399.539 21.5478 402.075 22.1816 404.927 22.1816H430.602C433.138 22.1816 435.991 21.8647 436.625 21.2309C437.259 20.5972 435.674 20.2803 433.138 20.2803H402.391ZM418.874 96.6485C416.338 96.6485 414.436 96.9654 414.754 97.5992C415.07 97.916 417.606 98.5498 420.142 98.5498H428.383C430.919 98.5498 433.455 98.2329 433.772 97.5992C434.089 96.9654 432.187 96.6485 429.651 96.6485H418.874Z" fill="#E0DBD6"/>
<path d="M375.768 97.5991C375.451 96.9653 377.353 96.6484 379.889 96.6484H406.196C408.732 96.6484 410.633 96.9653 410.317 97.5991C410 98.2329 407.464 98.5497 404.928 98.5497H381.157C378.621 98.5497 376.085 97.916 375.768 97.5991Z" fill="#E0DBD6"/>
<path d="M128 100.768L162.55 132.456H200.27L204.618 110.908L222.013 132.456H261.906L263.316 126.526L274.442 3.48569L272.54 0L222.812 0.316881L216.436 24.3998L198.685 0.316881H160.331L128 100.768Z" fill="black"/>
<path fill-rule="evenodd" clip-rule="evenodd" d="M191.233 63.8286C188.697 63.8286 187.746 65.413 189.648 67.3143L209.3 89.4959C210.885 91.3972 214.055 92.9816 215.957 92.9816C217.858 92.9816 218.175 91.0803 216.59 88.8622L215.639 87.5946C214.055 85.3765 213.421 81.5739 214.055 79.0389V78.4051C214.689 75.8701 214.055 72.0675 212.47 70.1662L210.568 67.3143C208.983 65.413 205.496 63.5117 202.96 63.5117L191.233 63.8286Z" fill="#29282A"/>
<path d="M221.921 23.4495L225.906 6.021H256.336L235.098 98.2332H202.133L211.959 59.2569H179.032L167.304 98.2332H135.29L164.769 6.33788H194.564L189.81 22.8157L184.28 41.5117L216.714 41.3532L221.921 23.4495Z" fill="#C4C4C4"/>
<path fill-rule="evenodd" clip-rule="evenodd" d="M140.045 98.2329C137.509 98.2329 136.875 99.8173 138.777 101.402L161.599 123.266C163.501 125.168 167.304 126.435 169.84 126.435H189.492C192.028 126.435 192.662 124.851 191.077 122.95L171.108 101.719C169.206 99.8173 165.72 98.2329 163.184 98.2329H140.045ZM204.172 98.2329C201.636 98.2329 200.685 99.8173 202.587 101.719L220.338 122.633C221.923 124.534 225.409 126.118 228.262 126.118H248.866C251.401 126.118 252.352 124.534 250.767 122.316L235.236 101.719C233.651 99.5004 230.164 97.916 227.628 97.916L204.172 98.2329Z" fill="#29282A"/>
<path opacity="0.44" fill-rule="evenodd" clip-rule="evenodd" d="M159.381 21.5483C159.064 22.182 160.966 22.4989 163.818 22.4989H185.372C187.908 22.4989 190.127 21.8652 190.127 21.2314C190.127 20.5976 187.908 19.9639 185.372 19.9639H164.452C161.916 20.2807 159.698 20.9145 159.381 21.5483ZM157.479 68.7634C158.43 66.2284 156.845 64.3271 154.309 64.3271H149.554C147.019 64.3271 144.8 64.644 144.8 65.2777C144.8 65.9115 147.019 66.2284 149.554 66.2284H151.456C153.992 66.2284 155.577 68.1297 154.626 70.6647L149.871 84.9243C148.92 87.4594 150.505 89.3607 153.041 89.3607H168.89C171.426 89.3607 173.644 89.0438 173.644 88.41C173.644 87.7763 171.426 87.4594 168.89 87.4594H155.577C153.041 87.4594 151.456 85.5581 152.407 83.023V82.7062C153.358 80.1711 155.894 78.2698 158.747 78.2698H170.792C173.327 78.2698 175.546 77.953 175.546 77.3192C175.546 76.6854 173.327 76.3686 170.792 76.3686H159.381C156.845 76.3686 155.26 74.4673 156.211 71.9322L157.479 68.7634ZM237.09 25.9846C237.407 23.4496 235.822 21.2314 232.97 21.2314H227.264C224.728 21.2314 222.193 21.5483 222.193 22.182C221.876 22.8158 224.095 23.1327 226.63 23.1327H230.751C233.287 23.1327 235.189 25.3508 234.872 27.8859L234.237 33.9066C233.921 36.4417 231.385 38.6598 228.849 38.6598H208.88C206.344 38.6598 204.125 38.9767 204.125 39.6105C204.125 40.2442 206.344 40.5611 208.88 40.5611H248.819C251.354 40.5611 253.573 40.2442 253.573 39.6105C253.573 38.9767 251.354 38.6598 248.819 38.6598H240.26C237.725 38.6598 235.822 36.4417 236.14 33.9066L237.09 25.9846Z" fill="#030303"/>
<path fill-rule="evenodd" clip-rule="evenodd" d="M220.654 22.8156H229.212C231.747 22.8156 231.747 22.4987 229.212 21.865L226.993 21.5481C224.457 20.9143 222.555 21.5481 222.555 22.4987L220.654 22.8156ZM181.568 111.859C180.618 110.908 177.765 110.275 175.229 110.591L170.792 111.225C168.256 111.542 168.256 112.176 170.792 112.493L178.399 113.443C180.935 113.443 182.52 113.126 181.568 111.859ZM252.352 122.95C251.718 121.999 249.183 121.365 246.33 121.365L236.187 122.316C233.651 122.633 233.651 122.95 236.187 123.267L248.866 124.534C251.402 124.534 252.987 123.9 252.352 122.95ZM194.247 73.3353C193.614 72.3847 195.199 72.0678 197.734 72.3847L203.757 73.0184C206.292 73.3353 206.292 73.6522 203.757 73.9691L200.27 74.286C197.734 74.6028 194.881 74.286 194.247 73.3353Z" fill="#030303"/>
<path fill-rule="evenodd" clip-rule="evenodd" d="M249.454 39.927C249.137 40.8777 246.602 40.8777 244.066 40.2439H243.432C240.896 39.6101 240.896 38.9764 243.432 38.9764H245.334C248.187 38.6595 249.772 39.2933 249.454 39.927ZM175.863 77.002C176.181 76.0514 174.596 75.4176 171.743 76.0514L168.89 76.6852C166.354 77.3189 166.354 77.9527 168.89 78.2696L170.158 78.5864C173.011 78.5864 175.547 77.9527 175.863 77.002Z" fill="#030303"/>
<path fill-rule="evenodd" clip-rule="evenodd" d="M182.519 112.176C181.885 111.225 181.885 108.69 182.519 106.155L183.153 103.937C183.787 101.402 184.421 101.402 184.421 104.254L184.104 109.007C183.787 111.542 183.153 113.126 182.519 112.176ZM251.718 123.266C251.085 122.95 251.085 120.731 251.718 118.83C252.352 116.929 252.986 117.246 252.986 119.781C252.986 122.316 252.352 123.9 251.718 123.266Z" fill="#29282A"/>
<path fill-rule="evenodd" clip-rule="evenodd" d="M166.671 114.711C164.452 114.077 164.769 113.76 166.988 113.76C169.207 114.077 172.694 114.394 174.596 114.711C176.497 115.028 176.181 115.345 174.279 115.662C172.06 115.662 168.573 115.345 166.671 114.711Z" fill="#5A5558"/>
<path fill-rule="evenodd" clip-rule="evenodd" d="M173.962 89.3603C173.962 88.7265 172.06 88.0928 169.524 88.0928H168.256C165.721 88.0928 165.721 88.7265 168.256 89.3603L169.207 89.6772C171.426 89.9941 173.645 89.9941 173.962 89.3603Z" fill="#030303"/>
<path fill-rule="evenodd" clip-rule="evenodd" d="M140.996 96.9653C138.46 96.9653 136.558 97.2822 137.192 97.916C137.509 98.2328 140.045 98.8666 142.898 98.8666H159.38C161.916 98.8666 164.452 98.5497 165.086 97.916C165.72 97.2822 163.818 96.9653 161.282 96.9653H140.996ZM208.02 96.9653C205.484 96.9653 203.582 97.2822 204.216 97.916C204.534 98.2328 207.069 98.8666 209.922 98.8666H226.405C228.94 98.8666 231.476 98.5497 232.11 97.916C232.427 97.2822 230.842 96.9653 228.306 96.9653H208.02ZM152.407 63.0591C149.871 63.0591 147.969 63.6929 148.286 64.0097C148.286 64.3266 150.188 64.9604 152.407 64.9604C154.626 64.9604 156.528 64.6435 156.528 64.0097C156.528 63.376 154.626 63.0591 152.407 63.0591ZM185.975 58.5322C183.44 58.5322 181.538 58.8491 181.855 59.4829C182.172 59.7998 184.39 60.4335 187.243 60.4335H204.525C207.061 60.4335 209.597 60.1166 209.914 59.4829C210.23 58.8491 208.329 58.5322 205.793 58.5322H185.975ZM173.961 19.3296C171.425 19.3296 169.524 19.6465 169.841 20.2802C170.158 20.914 172.376 21.2309 175.229 21.2309H182.202C184.739 21.2309 187.274 20.914 187.591 20.2802C187.908 19.6465 186.006 19.3296 183.47 19.3296H173.961ZM222.553 36.8938C220.018 36.8938 218.116 37.2107 218.433 37.8445C218.75 38.4782 220.968 38.7951 223.504 38.7951H227.988C230.523 38.7951 233.059 38.4782 233.059 37.8445C233.376 37.2107 231.474 36.8938 228.939 36.8938H222.553Z" fill="#E0DBD6"/>
<path d="M265.776 0L265.143 3.48569L246.571 100.768L265.459 129.287L267.361 132.456H306.983L309.836 112.809L319.345 132.456H359.601L360.391 123.583L355.413 100.768L361.296 24.2187L358.65 0H265.776Z" fill="#030303"/>
<path fill-rule="evenodd" clip-rule="evenodd" d="M253.415 98.2328H286.38L291.166 68.7629H314.274L310.153 98.2328H342.801L353.579 6.02051H323.149H301.278H270.848L253.415 98.2328ZM288.752 20.3708L286.85 32.0953L300.48 32.4122L299.846 36.8485H293.506L289.912 54.9107H297.836L298.972 48.5731H310.383L309.565 54.5939H317.172L320.132 36.5317H313.792L314.426 32.0953H327.105L328.69 20.3708H314.743L313.158 31.1447H301.747L303.016 20.3708H288.752Z" fill="#C4C4C4"/>
<path fill-rule="evenodd" clip-rule="evenodd" d="M258.169 98.2329C255.634 98.2329 254.683 100.134 255.951 102.352L267.996 122.316C269.263 124.534 272.75 126.435 275.286 126.435H295.256C297.791 126.435 299.059 124.534 297.791 122.316L288.282 102.669C287.014 100.451 284.161 98.5498 281.308 98.5498L258.169 98.2329ZM314.367 98.2329C311.831 98.2329 310.564 100.134 311.514 102.669L320.707 122.316C321.658 124.534 324.827 126.752 327.363 126.752H347.966C350.502 126.752 352.087 124.851 351.136 122.316L343.845 102.669C342.895 100.134 340.042 98.2329 337.506 98.2329H314.367Z" fill="#29282A"/>
<path opacity="0.44" fill-rule="evenodd" clip-rule="evenodd" d="M269.581 92.2123C270.215 89.6773 269.898 88.7266 269.264 89.9942C268.313 91.2617 267.362 93.4798 267.045 95.3811C266.728 96.9655 267.045 100.134 267.679 102.036C268.313 103.937 269.898 106.472 270.532 107.739C271.483 108.69 271.483 107.739 270.532 105.204L269.898 102.669C268.947 100.134 268.947 96.0149 269.581 93.4798V92.2123ZM261.973 68.4463C259.438 68.4463 257.219 68.7632 257.219 69.0801C257.219 69.3969 259.438 70.0307 261.973 70.3476L285.112 71.6151C287.648 71.6151 290.501 72.8826 291.135 73.8333C291.769 75.1008 293.037 75.7345 293.354 75.4177C293.671 75.1008 293.354 73.8333 292.403 72.2489C291.452 70.9813 288.599 69.7138 286.063 69.3969L261.973 68.4463ZM316.176 69.0801C313.64 69.0801 311.421 69.7138 311.421 70.3476C311.421 70.9813 313.64 71.2982 316.176 71.2982L329.172 70.6645C331.708 70.6645 333.61 72.5657 333.292 75.1008L330.44 93.4798C330.123 96.0149 330.44 100.134 331.074 102.669L331.391 103.937C332.025 106.472 333.61 109.641 334.56 110.908C335.511 112.176 335.829 111.542 334.877 109.007L332.976 102.669C332.342 100.134 332.025 96.0149 332.342 93.4798L335.511 73.1995C335.829 70.6645 334.244 68.4463 331.391 68.7632L316.176 69.0801Z" fill="#030303"/>
<path fill-rule="evenodd" clip-rule="evenodd" d="M318.711 118.83C318.394 117.88 320.296 117.246 322.831 117.246H324.734C327.269 117.246 327.269 117.88 325.05 118.83L323.782 119.147C321.247 119.781 319.028 119.781 318.711 118.83ZM331.707 94.7473C331.707 92.846 331.39 92.846 330.756 94.7473C330.439 96.6485 330.756 100.451 331.707 102.986L332.024 103.937C332.975 106.472 333.292 106.472 332.658 103.62V102.986C332.341 100.451 331.707 96.6485 331.707 94.7473ZM267.995 96.3317C267.678 95.381 267.044 95.6979 266.727 96.6485C266.41 97.5992 266.727 99.5005 267.678 100.768C268.629 102.036 269.263 102.036 268.946 100.451C268.629 98.8667 268.312 96.9654 267.995 96.3317Z" fill="#030303"/>
<path fill-rule="evenodd" clip-rule="evenodd" d="M320.296 21.8648C320.613 20.5973 322.832 19.9635 325.368 20.5973H325.685C328.221 21.231 328.221 22.1817 325.685 22.8154L324.734 23.1323C321.881 23.7661 319.979 23.1323 320.296 21.8648Z" fill="#030303"/>
<path fill-rule="evenodd" clip-rule="evenodd" d="M290.501 72.8825C290.501 71.2981 291.135 72.2487 292.086 74.4669L292.403 75.1006C293.353 77.6357 293.353 78.5863 292.403 77.6357C291.452 76.685 290.501 74.4669 290.501 72.8825Z" fill="#29282A"/>
<path fill-rule="evenodd" clip-rule="evenodd" d="M264.509 98.2329C263.874 98.2329 264.192 99.8173 265.143 101.719C266.093 103.62 266.411 103.62 266.093 101.719C265.777 99.8173 265.143 98.2329 264.509 98.2329ZM326.319 119.464C324.417 119.147 325.051 118.83 327.586 118.196L329.171 117.88C331.707 117.563 332.975 117.563 331.707 118.513C330.439 119.147 327.904 119.781 326.319 119.464Z" fill="#5A5558"/>
<path fill-rule="evenodd" clip-rule="evenodd" d="M309.52 70.9814C309.203 70.0307 311.105 69.397 313.64 69.397H321.882C324.418 69.397 324.418 69.7138 321.882 70.3476L314.591 71.932C312.373 72.2489 309.837 71.932 309.52 70.9814Z" fill="#030303"/>
<path fill-rule="evenodd" clip-rule="evenodd" d="M259.437 96.6486C256.902 96.6486 254.683 97.2823 255 97.5992C255.317 97.9161 257.219 98.5498 259.755 98.5498C262.29 98.5498 264.192 98.233 264.509 97.5992C264.509 96.9655 262.607 96.6486 260.071 96.6486H259.437ZM337.413 96.6486C334.878 96.6486 332.975 97.2823 333.293 97.5992C333.293 97.9161 335.194 98.5498 337.413 98.5498C339.632 98.5498 341.534 98.233 341.534 97.5992C341.851 96.9655 339.949 96.6486 337.413 96.6486ZM274.018 96.6486C271.482 96.6486 269.581 96.9655 269.581 97.5992C269.898 97.9161 272.116 98.5498 274.652 98.5498H279.724C282.26 98.5498 284.795 98.233 284.795 97.5992C285.112 96.9655 283.211 96.6486 280.358 96.6486H274.018ZM315.542 96.6486C313.006 96.6486 311.104 96.9655 311.421 97.5992C311.738 97.9161 313.957 98.5498 316.81 98.5498H323.466C326.002 98.5498 328.538 98.233 328.855 97.5992C329.172 96.9655 327.27 96.6486 324.734 96.6486H315.542ZM323.466 67.8124C320.93 67.8124 319.029 68.4462 319.029 68.7631C319.346 69.08 321.564 69.7137 324.1 69.7137H325.368C327.904 69.7137 330.123 69.3968 330.44 68.7631C330.756 68.1293 328.855 67.8124 326.002 67.8124H323.466ZM266.094 67.1787C263.558 67.1787 261.656 67.8124 261.656 68.1293C261.973 68.4462 264.192 69.08 266.728 69.08H267.996C270.532 69.08 272.75 68.7631 273.067 68.1293C273.385 67.4956 271.166 67.1787 268.63 67.1787H266.094ZM319.661 18.5602C317.941 18.7986 315.135 19.0128 315.361 19.6919C315.608 20.4327 317.961 20.3711 319.661 20.3709C321.018 20.3708 321.244 20.3709 323.055 20.3708C324.865 20.3707 328.126 20.6877 328.126 20.0539C328.443 19.4202 325.705 18.7639 324.006 18.4695C322.333 18.1798 321.342 18.3271 319.661 18.5602Z" fill="#E0DBD6"/>
<path d="M289.566 19.6011C289.339 18.922 292.145 18.7078 293.865 18.4694C295.546 18.2362 296.538 18.0889 298.21 18.3787C299.909 18.6731 302.648 19.3294 302.331 19.9631C302.331 20.5969 299.069 20.2799 297.259 20.28C295.449 20.2801 295.223 20.28 293.865 20.2801C292.165 20.2802 289.812 20.3419 289.566 19.6011Z" fill="#E0DBD6"/>
<path d="M320.491 35.7623C320.808 35.4455 319.223 34.8117 317.321 34.8117C315.419 34.4948 314.151 34.8117 314.151 35.7623C314.151 36.3961 315.736 36.713 317.321 36.713C318.906 36.713 320.491 36.0792 320.491 35.7623Z" fill="#E0DBD6"/>
<path d="M312.25 30.375C312.25 30.0581 310.665 29.4243 308.129 29.4243C305.91 29.4243 304.009 29.7412 304.009 30.375C304.009 31.0087 305.91 31.3256 308.129 31.3256C310.348 31.3256 312.25 30.6918 312.25 30.375Z" fill="#E0DBD6"/>
<path d="M298.62 35.7623C298.62 35.4455 297.352 34.8117 295.45 34.8117C293.865 34.4948 292.28 34.8117 292.28 35.7623C292.598 36.3961 293.865 36.713 295.45 36.713C297.035 36.713 298.62 36.0792 298.62 35.7623Z" fill="#E0DBD6"/>
<path d="M439.816 99.3647L448.375 0H532.074L528.745 99.3647L529.65 132.637H447.51L439.816 99.3647Z" fill="#030303"/>
<path d="M484.717 6.3374H451.809L444.794 99.1254H475.936L478.162 75.5984H484.041L483.262 85.3153H492.309L490.954 99.1092L523.076 99.1254L524.129 63.6022H511.321L511.751 56.6381H501.817L502.629 45.4061H511.957L512.905 33.9513H525.678L527.161 6.3374H500.065L499.064 16.5228H490.623L489.536 24.2185H483.025L484.717 6.3374Z" fill="#C4C4C4"/>
<path fill-rule="evenodd" clip-rule="evenodd" d="M450.069 99.9041C447.533 99.9041 445.666 101.785 446.241 104.292L450.125 122.781C450.701 125.288 453.271 127.168 455.807 127.168H470.291C472.827 127.168 475.058 124.974 475.117 122.467L475.306 104.292C475.365 101.785 473.159 99.5908 470.623 99.5908L450.069 99.9041Z" fill="#29282A"/>
<path fill-rule="evenodd" clip-rule="evenodd" d="M496.23 99.9041C493.694 99.9041 491.827 101.785 492.403 104.292L496.286 122.781C496.862 125.288 499.432 127.168 501.968 127.168H516.452C518.988 127.168 521.219 124.974 521.278 122.467L521.468 104.292C521.526 101.785 519.32 99.5908 516.784 99.5908L496.23 99.9041Z" fill="#29282A"/>
<path d="M509.963 99.1383C509.963 98.8363 512.207 98.2329 515.198 98.2329H517.816C520.808 98.2329 523.425 98.5349 523.052 99.1383C522.678 99.7417 520.06 100.044 517.068 100.044H515.946C512.955 100.044 510.337 99.4402 509.963 99.1383Z" fill="#E0DBD6"/>
<path opacity="0.44" d="M506.562 90.8398C506.14 88.307 506.339 85.4578 506.617 84.5076C506.894 83.5579 507.581 84.8245 508.346 87.9906L509.242 94.3228C509.664 96.8556 509.847 101.288 509.635 103.821L507.898 123.134C507.686 125.667 506.827 127.883 506.192 127.883C505.559 127.883 505.15 125.667 505.362 123.134L507.403 103.505C507.615 100.971 507.432 96.5392 507.01 94.0064L506.562 90.8398Z" fill="#030303"/>
<path d="M509.467 93.7968C509.15 91.2617 508.199 91.2617 507.882 93.7968C507.565 96.3318 507.248 100.451 507.248 103.303V105.204C507.248 107.74 507.882 107.74 508.516 105.204L509.15 102.986C509.784 100.451 510.101 96.3318 509.467 93.7968Z" fill="#030303"/>
<path d="M508.199 105.635C508.833 103.734 509.467 103.734 509.784 105.001C510.101 106.585 509.784 109.754 508.833 111.972C507.882 114.507 507.248 114.824 507.248 112.606C507.248 110.388 507.565 107.536 508.199 105.635Z" fill="#5A5558"/>
<path d="M491.408 99.1383C491.408 98.8363 494.116 98.2329 497.727 98.2329H500.886C504.497 98.2329 507.656 98.5349 507.205 99.1383C506.753 99.7417 503.594 100.044 499.983 100.044H498.629C495.019 100.044 491.859 99.4402 491.408 99.1383Z" fill="#E0DBD6"/>
<path d="M445.247 99.1383C445.247 98.8363 450.199 98.2329 456.801 98.2329H462.578C469.18 98.2329 474.957 98.5349 474.132 99.1383C473.307 99.7417 467.53 100.044 460.927 100.044H458.452C451.85 100.044 446.073 99.4402 445.247 99.1383Z" fill="#E0DBD6"/>
<path opacity="0.44" d="M496.22 45.2686C500.171 45.2686 503.628 45.5705 503.628 46.1739C503.628 46.7774 500.171 47.0793 496.22 47.0793H491.281C487.331 47.0793 482.392 46.4759 480.417 46.1739C478.441 45.5705 480.417 45.2686 484.367 45.2686H496.22Z" fill="#030303"/>
<path d="M480.547 44.8613C480.547 44.5444 482.449 43.9106 484.985 43.9106H487.52C490.056 43.9106 492.275 44.2275 491.958 44.8613C491.641 45.495 489.422 45.8119 486.886 45.8119H485.618C483.083 45.8119 480.864 45.1782 480.547 44.8613Z" fill="#E0DBD6"/>
<path d="M514.037 33.0913C514.037 32.7744 515.939 32.1406 518.475 32.1406H521.011C523.546 32.1406 525.765 32.4575 525.448 33.0913C525.131 33.725 522.912 34.0419 520.377 34.0419H519.109C516.573 34.0419 514.354 33.4082 514.037 33.0913Z" fill="#E0DBD6"/>
<path d="M503.627 45.0423C503.627 44.816 504.906 44.3633 506.611 44.3633H508.316C510.021 44.3633 511.513 44.5896 511.3 45.0423C511.087 45.495 509.595 45.7213 507.89 45.7213H507.037C505.332 45.7213 503.84 45.2687 503.627 45.0423Z" fill="#E0DBD6"/>
<path d="M484.62 84.8787C484.62 84.6524 485.899 84.1997 487.604 84.1997H489.309C491.014 84.1997 492.507 84.4261 492.293 84.8787C492.08 85.3314 490.588 85.5578 488.883 85.5578H488.031C486.325 85.5578 484.833 85.1051 484.62 84.8787Z" fill="#E0DBD6"/>
<path d="M478.736 75.3724C478.736 75.1461 479.564 74.6934 480.667 74.6934H481.77C482.874 74.6934 483.839 74.9197 483.701 75.3724C483.563 75.8251 482.598 76.0514 481.495 76.0514H480.943C479.84 76.0514 478.874 75.5987 478.736 75.3724Z" fill="#E0DBD6"/>
<path d="M502.749 46.1738C503.942 46.1738 504.985 46.4758 504.985 47.0792C504.985 47.6826 503.942 47.9846 502.749 47.9846H501.258C500.065 47.9846 498.575 47.3811 497.978 47.0792C497.382 46.4758 497.978 46.1738 499.171 46.1738H502.749Z" fill="#030303"/>
<path d="M36.0595 323.804L0.0357357 281.776C0.0357357 281.776 -0.187078 271.77 0.48003 269.991C1.14714 268.213 10.4866 248.867 10.4866 247.977C10.4866 247.087 13.6007 233.745 14.045 232.856C14.4893 231.967 20.9389 223.294 20.9389 222.627C20.9389 221.96 20.2718 217.29 20.2718 216.4C20.2718 215.51 25.3858 198.832 25.3858 198.832L27.3871 188.603L30.7227 185.49L29.75 180.181L29.8328 178.18L33.1683 174.595L36.7547 159.334L38.4224 158.333L81.7017 158.75L96.7944 173.76L97.7123 180.513L110.721 192.439L112.138 186.184L115.223 182.682H126.897L127.148 175.844L130.232 173.093L131.316 162.085L133.568 159.083L179.765 158.832L185.019 166.088L187.103 159.166L235.551 158.915C235.551 158.915 237.719 168.671 238.387 170.005L238.971 164.168L244.808 159.416L286.753 159.498L294.759 181.346L297.678 182.429L298.845 183.681L304.932 192.687L307.683 166.503L310.101 158.831L354.546 158.498L360.385 179.265L363.136 164.255L368.889 159.169L466.453 159.086L466.704 315.44L462.701 322.945L366.722 323.109L359.968 305.931L355.048 322.86L312.27 323.11L291.923 286.753L287.921 323.193L243.224 323.36L236.804 315.855L231.301 323.444L191.107 323.611L185.52 317.773L184.853 317.691L179.265 312.271V323.279L134.819 323.529L111.722 297.261H97.5442L92.4582 292.592L89.3734 289.756L86.0379 319.776L81.619 322.945L36.0595 323.804Z" fill="black"/>
<path d="M470.789 163.338L475.71 157.083L578.61 157L577.971 185.101L572.412 229.13L520.155 229.575L519.932 252.479L579.528 252.702L579.305 279.831L575.748 322.081H475.015V306.738L471.456 304.736L470.789 163.338Z" fill="black"/>
<path d="M582.597 158.557L682.886 158.334L688.667 174.789L692.893 157.89L791.625 157.667L797.406 168.118L802.743 157L904.143 157.223L905.7 163.894L911.481 157.444L1013.55 157L1019.33 165.228V185.241L1001.1 207.033L1023.78 270.853L1024 283.083L990.2 316.662L986.642 318.884L983.085 320.886L942.612 321.331L918.375 235.274L893.025 272.632L874.346 273.077L873.9 283.306L847.662 320.886L803.187 321.108L801.408 305.765L791.179 321.553L747.596 320.886L744.927 302.429L743.147 312.659L736.032 320.664L696.006 321.331L690.002 299.984L688.89 301.54L688 302.652L683.108 321.108L638.634 321.331L638.19 285.307L627.071 321.108L583.264 321.331L583.042 235.052L578.817 226.823L579.039 189.911L582.374 183.684L582.597 158.557Z" fill="black"/>
<path d="M4.00098 279.699V281.867L37.0228 320.226L74.3808 319.892L61.7058 304.548L59.1201 304.715L56.4516 304.131L50.8639 307.828L46.6385 306.383C46.6385 306.383 44.5811 306.272 44.4144 306.216C44.2476 306.16 43.9701 305.66 43.9701 305.66L47.2496 304.27L49.2509 304.159L50.4744 300.323L53.5324 300.767L59.3135 300.657L42.413 279.699H4.00098V279.699Z" fill="#29282A"/>
<path d="M66.6846 259.694L94.8138 258.36L106.044 272.036L148.072 277.929L149.629 290.604L163.861 305.169V308.394L160.636 308.728L158.745 309.172L158.078 312.508L152.631 312.618L150.296 314.843L150.963 315.954L153.521 315.287L159.747 316.621H163.306L171.978 315.843L171.311 319.957H135.397L124.5 307.838L115.717 296.274L108.712 288.825L107.934 283.044H109.825L109.492 280.82L106.379 278.374L105.155 278.485L104.043 288.158L108.712 293.162L104.71 294.051C104.71 294.051 100.818 294.274 100.374 294.051C99.9292 293.829 96.8151 292.494 96.8151 292.494L88.032 284.377L82.5844 279.263L87.1434 278.485L92.7018 278.929H95.2595L95.1487 277.706L88.6991 274.593L81.0274 275.26L78.1361 274.704L66.6846 259.694Z" fill="#29282A"/>
<path d="M168.044 311.711L171.796 310.294C171.796 310.294 172.129 303.956 171.796 303.456C171.462 302.956 168.377 299.704 168.377 299.704L169.629 305.708L168.044 311.711Z" fill="#29282A"/>
<path d="M164.043 282.478L182.166 279.699L194.063 293.262L193.84 286.036L195.285 280.143H208.406L219.524 304.715L224.86 315.5L227.529 319.725L190.727 319.392L186.168 313.721L182.276 308.829L180.164 304.048L178.497 299.823L173.604 294.042L164.043 282.478Z" fill="#29282A"/>
<path d="M220.058 282.7L226.172 289.815L229.174 296.264L235.068 308.494L242.739 320.392H282.543L268.534 282.7L251.301 282.254L249.633 282.366L248.52 288.481L252.635 293.929L244.963 289.705L239.96 281.032L220.058 282.7Z" fill="#29282A"/>
<path d="M296.077 281.587L300.191 292.707L304.527 300.933L307.973 304.492H313.977L315.978 305.159L317.98 307.494L325.541 307.938L325.207 308.828L321.649 309.051L317.646 310.273L311.531 308.605L309.974 308.828L309.641 310.051L313.755 318.724L350.668 319.391L351.891 308.828L339.55 281.699L330.321 281.477L329.099 282.366L329.543 285.479L332.768 288.37L330.988 293.484L335.658 299.933L329.433 295.263L328.765 288.815L324.984 286.924L324.763 281.032L296.077 281.587Z" fill="#29282A"/>
<path d="M356.093 282.366L362.43 306.272L367.1 319.837L458.717 319.28V305.715L453.38 303.826L448.043 304.047L439.481 305.604L438.258 305.382L438.481 303.826L440.926 302.046L450.822 300.935L453.824 297.933L457.493 297.71L459.272 295.041L459.384 282.7L457.382 281.255L436.256 282.033L433.033 283.034L431.476 287.148L431.699 290.038L429.585 286.925L429.252 282.256L390.338 282.145L385.556 282.7L384.889 286.369L388.447 288.26L386.335 298.156L387.336 302.602L384.778 301.268L383.667 298.933L383.555 290.817L376.996 283.034L368.211 281.032L356.093 282.366Z" fill="#29282A"/>
<path d="M475.568 279.368L474.79 304.161L478.347 305.162L481.238 309.387L492.913 309.61L495.248 313.501L491.912 313.167L486.686 312.056L480.238 312.834L477.792 315.391L478.459 320.172L537.386 320.617L538.387 314.28L539.166 309.944L541.167 306.942L541.389 297.713L543.39 293.821L544.28 289.597H544.836L546.504 292.153L545.391 304.94V308.61L541.945 314.168L543.057 319.838L571.521 320.395L575.968 283.147L571.298 282.37L562.181 281.258L553.73 282.926L552.285 286.595L550.173 287.706L547.282 293.043L545.837 286.039L543.836 282.259L515.705 281.369L514.149 281.702L511.481 284.482L509.701 287.929L505.811 289.263L504.143 291.265L502.586 294.488L499.695 297.824L500.028 302.606L497.249 298.714L497.026 294.488L500.14 292.153L502.363 283.037L499.584 274.364L475.568 279.368Z" fill="#29282A"/>
<path d="M590.823 278.924L589.266 282.816L586.931 286.04L586.82 303.052L597.16 301.828L597.383 303.719L598.272 305.053L604.499 306.387L610.392 306.831L626.958 304.497L630.627 296.268L630.849 286.818L634.741 280.258L630.627 279.369L601.719 273.032L597.05 270.363L590.823 278.924Z" fill="#29282A"/>
<path d="M586.932 306.373L586.82 318.047L622.623 317.824L627.959 310.263L613.283 311.487L611.615 310.597C611.615 310.597 599.162 311.708 598.717 311.708C598.273 311.708 596.049 311.375 596.049 311.375L593.825 310.263L592.603 306.928L586.932 306.373Z" fill="#29282A"/>
<path d="M651.618 278.365L648.394 280.811L641.501 317.725L678.303 318.281L683.417 309.496L683.195 303.382L679.303 304.493L677.969 304.16L675.523 302.048L678.859 301.937L680.971 300.603L685.307 297.489L689.754 291.263L693.98 280.477L690.978 280.033L674.744 280.367L674.411 283.369L672.743 291.151L671.075 288.038L668.74 286.815L667.073 280.033L651.618 278.365Z" fill="#29282A"/>
<path d="M708.855 278.365L702.741 293.152L698.849 313.276L699.182 317.502L733.649 317.725L739.431 313.388L740.32 302.715L733.761 299.267L728.424 299.046L726.2 298.045L726.311 296.932L728.979 297.599L733.094 295.821L749.104 294.709L754.996 280.811L751.106 279.587L738.652 279.699L737.097 285.258L737.318 287.482L734.316 284.369L730.981 279.81L708.855 278.365Z" fill="#29282A"/>
<path d="M768.318 278.365L750.862 312.944L750.973 317.835H790.778L809.568 284.258L809.679 279.477L806.009 278.81L768.318 278.365Z" fill="#29282A"/>
<path d="M812.101 287.701L810.878 294.595L815.103 296.04L815.214 298.485L818.439 293.482L814.436 291.926L812.101 287.701Z" fill="#29282A"/>
<path d="M829.444 280.145L827.442 282.146L822.105 293.154L823.329 295.489L828.666 295.71L830 297.49L830.444 300.046L841.118 300.38L843.789 303.16V304.161L842.343 303.938L839.453 302.493L836.339 302.604L826.999 303.827L822.442 303.271L818.883 304.605L816.326 305.829L814.77 308.385L810.878 316.169L811.656 318.058L843.9 318.614L870.473 282.701L870.584 281.479L869.361 278.365L829.444 280.145Z" fill="#29282A"/>
<path d="M974.71 275.824L973.264 276.491L963.703 291.501L963.146 293.058L964.258 295.615L966.371 298.506L968.373 298.95L973.153 298.062L975.044 298.506L977.489 300.841L977.266 302.064L975.932 301.952L973.597 300.841L968.261 303.732L958.7 303.62L957.365 302.509L956.142 298.283L954.918 295.393L952.25 293.503L951.472 287.165L950.582 285.942L946.913 285.387L948.247 287.054L949.694 287.943L951.361 295.727L953.029 296.728L954.474 297.95L956.253 302.842L956.698 304.844L954.474 307.289L952.362 309.069L950.471 311.737L949.137 314.183L947.469 315.851L947.58 317.519L982.048 317.629L1019.07 281.05L1016.18 279.271L1000.5 245.248L997.058 242.469L964.258 239.688L960.144 239.801L958.921 245.915L958.254 247.36L956.809 247.472L955.919 257.256L952.473 260.481L953.14 268.041L950.027 268.82H953.918L954.585 262.482L959.033 258.813L960.589 250.251L969.818 246.582L974.264 246.36L979.046 246.916L974.71 275.824Z" fill="#29282A"/>
<path d="M62.6826 300.209L65.351 297.707L64.8507 291.703L65.1843 289.035L62.6826 291.37L64.1423 297.165L62.6826 300.209Z" fill="#29282A"/>
<path d="M45.3447 307.138L50.9044 309.25L51.7943 309.194L55.5181 306.525L56.9497 305.039L54.296 305.637L51.9611 306.915L50.6816 307.249L45.3447 307.138Z" fill="#504C4D"/>
<path d="M181.38 281.089L193.777 292.985L194 292.818L185.272 281.033L181.38 281.089Z" fill="#504C4D"/>
<path d="M240.062 281.31L244.788 288.648L246.179 289.649L251.578 291.968L246.956 288.648L245.956 283.756L245.399 282.922L242.231 281.033L240.062 281.31Z" fill="#504C4D"/>
<path d="M314.749 309.538L316.75 311.208H317.875L322.586 309.04L314.749 309.538Z" fill="#504C4D"/>
<path d="M370.763 282.256L375.766 283.368L377.545 284.535L380.88 288.26L382.937 290.539L383.827 297.433L385.439 290.762L380.936 286.092L378.879 283.201L377.657 282.144L372.597 281.033L370.763 282.256Z" fill="#504C4D"/>
<path d="M497.463 293.656L500.279 288.207L500.724 284.76L500.39 281.481L498.166 274.977L505.56 274.364L504.393 281.758L504.949 285.484L502.169 288.54L501.113 291.488L500.223 293.21L499.389 293.656H497.463Z" fill="#504C4D"/>
<path d="M544.695 303.879L548.422 296.151L549.033 292.205L549.979 286.368L548.255 287.09L546.087 290.759L544.809 294.928L544.142 297.208L544.695 303.879Z" fill="#504C4D"/>
<path d="M598.822 311.057L602.978 312.209L607.856 310.498L612.557 310.624L610.191 309.04L603.104 310.123L598.822 311.057Z" fill="#504C4D"/>
<path d="M673.131 290.87L675.093 288.746L675.342 281.033H672.883L672.175 281.867L672.466 284.41L673.05 288.245L673.131 290.87Z" fill="#504C4D"/>
<path d="M736.525 279.699L736.191 282.924L736.957 285.815L739.137 279.978L736.525 279.699Z" fill="#504C4D"/>
<path d="M729.523 298.635L735.534 297.037L740.425 302.263L734.867 299.928L729.523 298.635Z" fill="#504C4D"/>
<path d="M821.547 303.615L824.419 302.413L826.309 303.08L833.926 302.857L838.728 302.372L841.986 304.081L836.649 303.414L831.479 304.081L825.975 304.859L823.474 304.081L821.547 303.615Z" fill="#504C4D"/>
<path d="M36.245 176.177L33.5765 180.18V181.681L35.9114 184.183L42.916 185.35L48.7532 182.849L55.4243 182.682L62.5957 184.516L52.6998 186.295L44.8066 189.075H33.6873L29.7967 192.744L22.68 218.539L25.682 220.874L34.0208 222.431L36.245 225.21L34.0208 239.33L33.3537 225.766L22.9028 225.877L18.6773 230.213L4.4466 271.797L4.00098 278.134L22.5692 280.135L45.0281 278.245L48.6972 275.132L49.1428 266.681L27.9061 265.014L27.4618 256.23L30.6853 261.79L34.9107 263.346L52.5891 263.012L52.8119 256.008L32.1316 253.785L32.4651 242.888L33.6873 252.117L45.918 252.784L52.4783 248.781L61.1507 233.104L66.042 231.214L71.3788 233.659L67.4883 251.004L67.7097 256.008L82.6089 258.342L96.9517 255.786L99.1759 252.338L105.18 233.326L106.291 233.215L112.072 231.547L115.741 233.993L105.401 270.573L105.958 278.022L126.749 280.469L150.098 278.022L150.765 277.467L165.22 218.428L165.107 217.205L162.773 214.759L149.43 215.092L147.096 210.867L132.976 210.089L109.516 210.533L109.627 207.421L110.071 206.308L111.405 208.088L122.413 208.199L134.643 205.641L137.979 203.64V185.073H118.522L112.629 195.746L111.628 202.972L108.96 203.973L108.182 205.086L107.625 207.087H82.9425L83.0532 198.081L86.3888 193.633L86.5008 188.742L83.276 185.406L81.8311 185.294L76.3821 188.075L60.1501 187.852L69.6003 186.407L74.9372 186.295L74.8264 177.289L78.8291 172.508L80.0512 164.947L79.1626 162.391L41.415 162.335L36.245 176.177Z" fill="#C4C4C4"/>
<path d="M134.816 162.558L133.592 172.564L130.701 176.567L130.924 180.68L138.262 180.903L141.041 185.127L141.153 206.92L144.266 208.143H148.269L149.714 210.7L159.499 210.923L164.836 205.474L175.064 172.119L175.176 162.335L134.816 162.558Z" fill="#C4C4C4"/>
<path d="M192.562 162.335L190.894 164.336L164.043 273.075L165.377 277.911L186.224 278.078L186.725 274.409L188.059 270.406L189.393 274.743L192.729 278.078L198.566 278.578L208.239 277.911L225.417 192.855L217.245 191.021L210.073 192.021L216.578 188.852L224.75 188.686L228.252 185.517L231.087 166.171L230.087 163.169L192.562 162.335Z" fill="#C4C4C4"/>
<path d="M246.909 163.835L243.24 167.171L227.729 240.886L231.065 242.721L239.571 242.22L246.075 241.887L240.571 243.555L232.733 245.723L229.731 245.056L227.563 247.557L223.06 273.741L220.058 279.245L236.235 280.412L243.573 279.245L257.416 280.246L267.422 279.245L268.923 276.91L269.924 261.066L266.422 252.394L262.085 249.725L252.079 249.058L249.41 245.889L242.572 245.723L245.741 243.555L248.243 241.887L253.913 245.222L269.59 248.224L272.426 245.222L276.095 230.379L276.595 223.875L284.433 223.541L293.94 226.043L286.935 227.544L287.435 244.722L289.103 246.056L298.61 245.389L309.617 250.059H312.619L319.957 247.724L327.629 251.226L328.796 251.56L331.798 255.896L329.63 269.739L328.629 255.729L327.462 254.062L320.124 251.226L311.618 253.728L305.948 250.392H301.612L298.443 253.895L297.776 270.906L295.107 273.908L295.274 279.245L309.95 280.412L325.294 279.412L326.628 276.41L326.128 268.571L328.629 275.409V279.078L333.466 280.579L340.471 279.078L346.975 232.047L350.977 193.355L350.811 163.668L313.286 163.835L309.617 167.838L309.784 177.344L317.455 186.017L326.795 185.85L328.629 189.519L331.631 189.352L337.135 187.851L347.308 192.354L325.627 191.353L322.625 190.019L313.619 189.852L311.952 186.85L310.284 187.017L305.614 204.028L302.279 207.531L291.105 208.365L291.438 205.196L294.107 201.694L294.273 187.684L292.772 186.017L283.266 185.85L273.426 183.515L280.931 183.181L282.933 181.68L283.433 165.003L282.432 163.668L246.909 163.835Z" fill="#C4C4C4"/>
<path d="M370.267 164.002L366.598 166.67L365.931 189.519L366.765 192.854L374.103 194.856L380.274 192.521H382.109L392.115 194.022L377.272 196.19L363.43 197.524L358.76 248.891L364.764 250.226L377.772 248.891L381.275 250.893L379.94 268.071L385.944 279.078L418.132 281.079L430.474 279.078L431.141 274.909L433.476 265.736L433.309 277.077L435.31 279.912L459.993 279.245L460.16 257.397L455.657 257.564L452.488 263.401L441.481 262.901L435.644 263.568L437.312 261.233L450.987 260.733L451.488 257.564L450.487 256.563L400.954 256.73L403.79 243.221L404.457 234.715L407.625 234.382L419.633 232.381L431.141 231.046L431.641 228.878L432.975 231.213L452.322 234.382H456.324L460.16 230.88L460.327 209.032H437.812L434.476 211.033L432.308 217.871L432.142 221.54L432.809 223.375L430.307 220.206V211.2L428.639 208.365L403.956 207.531L407.292 195.69L407.959 186.35L432.975 184.682L459.159 186.35H460.16L463.496 182.181L463.662 163.668L370.267 164.002Z" fill="#C4C4C4"/>
<path d="M358.761 253.859L356.26 255.861L356.093 279.71L361.096 280.71L378.608 279.71L379.108 253.025L358.761 253.859Z" fill="#C4C4C4"/>
<path d="M478.459 162.335L475.29 167.005L474.79 223.876L482.795 223.709L485.297 224.543L479.46 225.21L475.124 230.88L475.457 278.912L483.296 280.413L495.137 279.246L497.472 276.41L505.811 275.91L507.478 273.242L509.98 276.577L512.148 277.911L514.149 279.246L543.335 280.246L545.837 278.912L544.836 277.578L547.505 270.24V267.571L549.506 270.073L549.006 277.578L551.674 279.412L576.691 279.079V260.066L573.022 256.23L519.486 256.564L515.984 252.895L519.653 229.713L520.487 211.868L512.148 204.196L496.304 204.53L486.965 202.028L493.803 202.361L507.478 200.193L510.48 200.694L512.482 200.86L516.818 204.696L519.82 203.362L520.153 188.519L523.322 185.851L526.157 185.517L566.184 184.85L568.852 185.851L571.687 183.349L572.355 171.174L575.523 169.173L576.024 162.335H478.459Z" fill="#C4C4C4"/>
<path d="M691.89 262.902L691.223 230.547L688.387 224.877L688.054 217.038H668.708L664.872 215.704L659.368 216.038L662.704 213.369L672.877 213.036L674.045 208.7L676.213 207.032L678.214 206.031L688.054 205.531L687.887 194.524L686.053 191.188L684.552 187.019L684.051 184.017L683.884 171.175L679.215 161.168L609.168 161.001V164.504L611.837 166.672L612.838 194.023L612.337 203.196L611.337 208.366L615.006 209.867L624.845 208.366L630.182 214.537L623.678 211.035L615.673 213.703L612.671 211.368L610.169 208.533L609.335 201.528L610.669 192.522L611.003 186.018L609.836 167.005L606.834 164.671L604.499 161.335L586.82 161.168V194.69L594.492 195.024L599.996 194.524L605.166 195.191L607.834 195.024L602.331 197.859L594.325 198.026L589.322 200.861L586.987 205.864V227.879L590.823 236.718L590.489 276.244L592.491 277.245L594.992 276.244L597.828 271.741L602.497 269.573L602.831 259.4L604.999 255.23L605.833 268.739L602.331 272.575L598.495 276.578L614.839 279.58L635.686 276.411V254.897L623.178 253.062L607.834 254.23L612.004 251.228L626.513 249.06L631.183 250.394L633.685 250.227L632.184 244.223L632.017 232.382H633.685L637.02 231.381L643.858 232.549L647.027 236.218V239.72L655.032 239.387L662.871 238.553L670.376 239.22L676.88 239.387L648.528 242.722L647.027 244.39L646.693 262.068L650.529 269.406L651.53 276.411L658.534 277.579L670.542 276.244L671.043 272.242L672.71 274.076L673.044 276.578L681.049 278.913L695.559 276.411L696.059 269.74L691.89 262.902ZM632.35 205.531L632.184 194.357L628.515 191.021L628.181 184.517L639.689 184.183L642.524 186.518L642.857 205.864L632.35 205.531Z" fill="#C4C4C4"/>
<path d="M810.09 262.735L804.253 258.398L796.748 257.731L794.914 254.563L781.905 253.395L774.567 252.728L767.729 254.563L771.899 251.894L773.233 250.727L783.406 251.227L798.083 252.394L801.251 255.396L807.255 254.729L808.589 252.561L792.245 162.835L694.848 162.335L705.688 246.891L707.022 276.744L716.529 278.245L733.54 277.077L743.213 278.578L754.22 276.744L747.716 247.058L749.05 243.889L754.22 242.054L761.892 244.389L765.394 251.06L765.728 276.577H810.591L810.09 262.735ZM756.555 184.516H757.389L765.227 182.515L771.231 184.35L772.399 194.69L755.388 194.856L755.054 188.019L756.555 184.516ZM722.199 188.519L722.866 183.682L730.538 182.682L736.042 184.016L738.376 184.35L739.544 187.518V195.023L724.2 195.19L722.199 188.519ZM762.893 225.377L761.725 218.539L746.382 216.204H743.88L742.879 224.209L736.542 224.376L735.708 217.705L732.873 214.369L733.04 204.196L740.378 203.696V196.357L754.22 195.69L758.223 203.029L765.561 203.195L765.728 205.363L770.064 210.2L769.73 225.043L762.893 225.377Z" fill="#C4C4C4"/>
<path d="M806.877 161.223V187.019L825.334 276.188L843.791 277.522L870.475 275.965L863.581 232.826L866.472 232.159L877.369 229.046L880.259 226.6L883.817 213.48L883.594 210.589L885.151 213.703L883.817 223.042L884.929 226.6L885.151 229.046L918.507 231.936L918.951 224.821L914.727 219.04L914.281 209.922L910.946 205.698H883.373L882.039 206.586L880.926 205.698L859.134 205.031L855.576 201.917L851.573 183.238H853.13L860.468 181.236L873.588 179.902L874.033 175.678L873.033 174.788L869.92 174.677L869.142 172.342L865.807 168.34L862.471 167.673L863.693 163.558L864.027 165.893L866.474 167.005L867.808 168.784L870.476 172.119L875.924 172.453L876.814 173.454L877.035 179.124L877.925 179.68L907.278 183.238H907.945L907.834 174.899L904.61 170.452L902.164 166.338L901.385 162.669L898.828 161.001L806.877 161.223Z" fill="#C4C4C4"/>
<path d="M916.239 161.112L916.35 171.563L921.798 181.682L944.813 181.015L946.147 179.902V177.79L945.258 176.233L945.48 175.455L948.815 172.453L948.26 175.121L948.038 184.127L964.605 239.053L967.273 243.056L972.943 240.387L988.731 243.389L1001.18 242.611L1005.08 245.613L1000.96 244.167L987.953 246.168L981.616 245.168L973.832 247.281L969.385 251.282L974.722 274.631L976.5 275.744L1014.19 277.412L1020.42 275.744L989.953 187.24L987.508 184.572V177.79L983.616 175.121L985.617 163.447L984.729 162.002L986.396 162.669L986.73 171.897L989.62 175.899L991.733 180.681L994.29 182.46L1011.97 181.793L1013.97 182.015L1016.86 179.347L1017.19 167.56L1013.97 165.338L1012.97 161.001L916.239 161.112Z" fill="#C4C4C4"/>
<path d="M42.6777 184.842L48.14 181.006L56.1453 181.089L62.8991 182.715L65.1926 183.299L71.0018 185.898L63.3581 186.343L51.8785 185.953L59.4808 183.841L50.4749 183.716L46.3468 184.508L42.6777 184.842Z" fill="#DBD5CF"/>
<path d="M122.698 207.627L129.98 207.489L138.625 206.376L138.514 202.345L131.009 203.458L126.395 205.375L122.698 207.627Z" fill="#DBD5CF"/>
<path d="M105.361 232.854L106.529 229.686L120.538 229.019L116.702 234.356H115.368V233.355L105.361 232.854Z" fill="#DBD5CF"/>
<path d="M97.453 255.762L68.1003 255.692L68.0176 259.32L70.1857 260.321H93.7012L95.1181 259.431L97.453 255.762Z" fill="#DBD5CF"/>
<path d="M70.9669 233.966L72.6907 229.019L60.0156 230.02L60.7388 233.411L70.9669 233.966Z" fill="#DBD5CF"/>
<path d="M34.0127 222.241L31.1775 219.683L22.6719 218.349L23.6725 222.018L34.0127 222.241Z" fill="#DBD5CF"/>
<path d="M45.1949 278.698L41.5258 282.868L6.50263 282.367L4.00098 280.533L4.16775 278.365L45.1949 278.698Z" fill="#DBD5CF"/>
<path d="M106.694 277.586L109.696 281.311L145.887 281.979L151.501 277.031L106.694 277.586Z" fill="#DBD5CF"/>
<path d="M165.376 278.365V282.201L186.39 282.034L186.223 278.532L165.376 278.365Z" fill="#DBD5CF"/>
<path d="M194.885 282.534L193.384 278.532L208.831 278.365L205.725 282.367L194.885 282.534Z" fill="#DBD5CF"/>
<path d="M220.224 278.365L220.058 279.699L221.892 282.201H242.739L243.573 280.033L243.74 278.365H220.224Z" fill="#DBD5CF"/>
<path d="M250.732 277.782L251.588 278.199L252.255 281.534L265.764 281.701L268.828 277.031L250.732 277.782Z" fill="#DBD5CF"/>
<path d="M236.062 240.815L240.419 237.021L252.594 238.355L254.929 243.525L249.425 241.024L245.11 243.025L240.503 242.15L244.755 240.857L243.109 240.439L236.062 240.815Z" fill="#DBD5CF"/>
<path d="M330.753 188.343L335.923 185.007L337.257 185.175L344.095 187.676L347.18 191.011L339.259 188.844L330.753 188.343Z" fill="#DBD5CF"/>
<path d="M313.415 248.192L315.416 245.023L323.922 245.19L328.362 249.359L320.753 247.858L313.415 248.192Z" fill="#DBD5CF"/>
<path d="M326.118 278.532L296.099 278.365L296.077 282.118L325.306 282.283L326.118 278.532Z" fill="#DBD5CF"/>
<path d="M329.419 277.198L329.586 279.7L331.253 281.367H340.259L341.26 279.033V277.031L329.419 277.198Z" fill="#DBD5CF"/>
<path d="M355.093 278.365L354.76 282.701L370.604 282.534L377.608 278.365H355.093Z" fill="#DBD5CF"/>
<path d="M364.096 248.358L367.431 245.023L377.938 245.523L379.272 248.192L370.934 248.358H364.096Z" fill="#DBD5CF"/>
<path d="M385.434 277.157L386.101 278.658L387.768 278.991L392.271 281.493L429.629 281.514L430.004 277.031L385.434 277.157Z" fill="#DBD5CF"/>
<path d="M434.78 277.532L436.448 281.367H457.128L459.838 277.698V277.031L434.78 277.532Z" fill="#DBD5CF"/>
<path d="M451.793 233.688L451.126 230.353L432.113 230.519L432.78 233.855L451.793 233.688Z" fill="#DBD5CF"/>
<path d="M429.788 233.855L430.622 230.353L407.773 230.519L406.772 233.688L429.788 233.855Z" fill="#DBD5CF"/>
<path d="M409.44 184.675L410.941 181.173L457.305 181.006L459.389 184.924L409.44 184.675Z" fill="#DBD5CF"/>
<path d="M568.333 184.508L566.665 181.506L525.137 181.006L524.137 184.341L568.333 184.508Z" fill="#DBD5CF"/>
<path d="M510.974 199.401L509.473 197.01L499.633 199.178L494.796 197.677L492.128 200.94L498.299 201.513L510.974 199.401Z" fill="#DBD5CF"/>
<path d="M474.79 278.365V279.554L477.625 282.055H492.135L494.608 278.552L474.79 278.365Z" fill="#DBD5CF"/>
<path d="M513.467 278.435L516.426 282.263L545.716 282.534L545.549 278.365L513.467 278.435Z" fill="#DBD5CF"/>
<path d="M550.811 278.532L554.648 281.367L558.066 282.034L572.742 282.201L576.078 279.532V278.365L550.811 278.532Z" fill="#DBD5CF"/>
<path d="M590.82 279.867V275.698H595.323L592.655 279.867H590.82Z" fill="#DBD5CF"/>
<path d="M609.492 252.633L612.724 249.525L627.9 246.356L631.236 250.17L611.89 251.193L609.492 252.633Z" fill="#DBD5CF"/>
<path d="M598.656 275.698L597.488 276.698L601.491 281.035L631.678 280.534L635.18 276.677V275.843L598.656 275.698Z" fill="#DBD5CF"/>
<path d="M593.488 194.496L596.657 191.676L603.828 192.176L604.829 194.678L601.16 195.178L593.488 194.496Z" fill="#DBD5CF"/>
<path d="M633.832 231.688L633.498 227.685H641.503L644.005 231.854L633.832 231.688Z" fill="#DBD5CF"/>
<path d="M654.838 238.689L656.339 235.687L667.346 236.354L671.516 238.522L654.838 238.689Z" fill="#DBD5CF"/>
<path d="M650.836 275.865L650.981 277.907L653.004 280.534H668.681L669.849 275.698L650.836 275.865Z" fill="#DBD5CF"/>
<path d="M672.175 275.698L672.531 280.369L691.71 280.202L694.628 276.366L694.712 275.699L672.175 275.698Z" fill="#DBD5CF"/>
<path d="M722.855 182.841L724.023 180.006L734.53 179.672L736.303 183.213L722.855 182.841Z" fill="#DBD5CF"/>
<path d="M757.531 183.675C757.531 183.175 757.865 180.173 757.865 180.173L768.539 179.672L771.374 183.508L757.531 183.675Z" fill="#DBD5CF"/>
<path d="M746.861 214.849L747.028 216.183L762.705 217.184L754.2 214.349L746.861 214.849Z" fill="#DBD5CF"/>
<path d="M749.528 242.857L751.029 238.354L760.369 239.188L762.37 243.358L749.528 242.857Z" fill="#DBD5CF"/>
<path d="M770.868 251.808L771.757 249.692L777.427 247.69L783.431 248.024L785.853 250.538L773.758 250.692L770.868 251.808Z" fill="#DBD5CF"/>
<path d="M811.729 275.698V276.72L807.893 280.493H770.869L766.866 275.823L811.729 275.698Z" fill="#DBD5CF"/>
<path d="M755.382 275.698L752.38 280.034L737.704 279.867L734.869 276.365L732.701 280.534L709.852 279.7L708.185 275.698H755.382Z" fill="#DBD5CF"/>
<path d="M825.549 275.921L828.495 280.257L867.687 280.09L870.856 276.921L870.689 275.698L825.549 275.921Z" fill="#DBD5CF"/>
<path d="M865.559 232.572L867.226 229.056L878.067 229.019L875.565 231.724L870.228 232.391L865.559 232.572Z" fill="#DBD5CF"/>
<path d="M885.688 228.439L885.563 232.522L919.086 231.798L915.75 227.685L885.688 228.439Z" fill="#DBD5CF"/>
<path d="M908.472 182.452L904.858 178.839L877.562 178.339L879.007 183.175L908.472 182.452Z" fill="#DBD5CF"/>
<path d="M872.902 182.675C873.402 182.175 874.236 180.507 874.236 180.507L874.069 178.339L854.723 178.672L853.556 182.342L872.902 182.675Z" fill="#DBD5CF"/>
<path d="M921.573 181.341L924.195 178.339L943.708 179.506L945.035 180.623L944.041 182.675L922.527 183.175L921.573 181.341Z" fill="#DBD5CF"/>
<path d="M993.593 182.73L996.05 179.839L1013.4 179.672L1013.91 182.346L1012.89 183.675H994.216L993.593 182.73Z" fill="#DBD5CF"/>
<path d="M968.253 243.112L970.169 239.688L981.343 240.355L988.014 242.023L989.071 243.747L981.009 243.19L973.671 242.19L968.253 243.112Z" fill="#DBD5CF"/>
<path d="M974.921 274.364L980.035 280.424H1017.06L1020.62 275.476L974.921 274.364Z" fill="#DBD5CF"/>
</svg>
