<svg width="48" height="48" viewBox="0 0 48 48" fill="none" xmlns="http://www.w3.org/2000/svg">
<g clip-path="url(#clip0_69_1258)">
<path d="M45.6633 8.432L42.0073 12.0893C42.0073 12.0893 39.5686 13.308 37.1313 10.8693C34.6926 8.432 35.9113 5.99333 35.9113 5.99333L39.5687 2.336C40.7887 1.11733 39.3233 9.09216e-08 38.2233 9.09216e-08C36.9392 -0.00017502 35.6677 0.252594 34.4813 0.743873C33.2949 1.23515 32.2169 1.95532 31.3088 2.86324C30.4008 3.77117 29.6805 4.84907 29.189 6.0354C28.6976 7.22173 28.4446 8.49324 28.4446 9.77733C28.4446 10.536 28.5406 11.272 28.7033 11.9813L20.438 20.2467L27.7513 27.56L36.0166 19.296C36.7397 19.4649 37.4795 19.5517 38.222 19.5547C39.506 19.5547 40.7774 19.3018 41.9636 18.8104C43.1498 18.3191 44.2277 17.5989 45.1356 16.691C46.0435 15.783 46.7637 14.7052 47.2551 13.519C47.7464 12.3327 47.9993 11.0613 47.9993 9.77733C48.0006 8.67067 46.882 7.21333 45.6633 8.432ZM20.294 20.4853L4.04198 36.736C3.56767 37.2102 3.19142 37.7732 2.93472 38.3929C2.67802 39.0125 2.5459 39.6766 2.5459 40.3473C2.5459 41.018 2.67802 41.6822 2.93472 42.3018C3.19142 42.9214 3.56767 43.4845 4.04198 43.9587C4.51619 44.433 5.07919 44.8092 5.69883 45.0659C6.31847 45.3226 6.98261 45.4547 7.65331 45.4547C8.32402 45.4547 8.98816 45.3226 9.6078 45.0659C10.2274 44.8092 10.7904 44.433 11.2646 43.9587L27.514 27.708L20.294 20.4853ZM7.68465 42.4507C7.42516 42.4507 7.16821 42.3996 6.92847 42.3002C6.68873 42.2009 6.47089 42.0554 6.28741 41.8719C6.10392 41.6884 5.95836 41.4706 5.85906 41.2308C5.75976 40.9911 5.70865 40.7342 5.70865 40.4747C5.70865 40.2152 5.75976 39.9582 5.85906 39.7185C5.95836 39.4787 6.10392 39.2609 6.28741 39.0774C6.47089 38.8939 6.68873 38.7484 6.92847 38.6491C7.16821 38.5498 7.42516 38.4987 7.68465 38.4987C8.20872 38.4987 8.71132 38.7068 9.08189 39.0774C9.45246 39.448 9.66065 39.9506 9.66065 40.4747C9.66065 40.9987 9.45246 41.5013 9.08189 41.8719C8.71132 42.2425 8.20872 42.4507 7.68465 42.4507Z" fill="#EC3750"/>
<path d="M41.1065 44.3719C42.6611 45.9266 45.1358 45.9999 46.6011 44.5333C48.0665 43.0666 47.9945 40.5933 46.4398 39.0386L15.4198 8.01859C13.8638 6.46259 11.3918 6.39059 9.92514 7.85726C8.45847 9.32392 8.5318 11.7973 10.0865 13.3519L41.1065 44.3719Z" fill="#EC3750"/>
<path d="M28.5906 1.19179C28.5906 1.19179 20.5906 -2.80821 13.924 3.85846L4.59064 13.1918C4.59064 13.1918 3.25731 11.8585 1.92397 13.1918L0.590639 14.5251C0.590639 14.5251 -0.742694 15.8585 0.590639 17.1918L5.92397 22.5251C5.92397 22.5251 7.25731 23.8585 8.59064 22.5251L9.92397 21.1918C9.92397 21.1918 11.2573 19.8585 9.92397 18.5251L9.81997 18.4211C10.8466 17.4305 12.384 16.4211 13.924 17.1918L19.2573 11.8585C19.2573 11.8585 17.924 7.85846 20.5906 5.19179C23.2573 2.52512 24.5906 2.52513 27.2573 2.52513C29.924 2.52513 28.5906 1.19179 28.5906 1.19179Z" fill="#EC3750"/>
</g>
<defs>
<clipPath id="clip0_69_1258">
<rect width="48" height="48" fill="white"/>
</clipPath>
</defs>
</svg>
